<?xml version="1.0" encoding="utf-8"?>
<!-- Generator: Adobe Illustrator 28.0.0, SVG Export Plug-In . SVG Version: 6.00 Build 0)  -->
<svg version="1.1" id="Capa_1" xmlns="http://www.w3.org/2000/svg" xmlns:xlink="http://www.w3.org/1999/xlink" x="0px" y="0px"
	 viewBox="0 0 457.3 115.5" style="enable-background:new 0 0 457.3 115.5;" xml:space="preserve">
<style type="text/css">
	.st0{fill:#FFFFFF;}
</style>
<g>
	<g>
		<path class="st0" d="M201.7,8.1h-19.9l-13.9,27.6h-0.2V8.1h-18.7V26c-0.2-2.1-0.5-4.1-1.1-5.9c-0.8-2.8-2.2-5.2-4-7.2
			c-1.8-2-4.2-3.5-7.2-4.6c-3-1.1-6.5-1.6-10.8-1.6c-4.8,0-8.9,0.7-12.2,2c-3.3,1.3-5.9,3.4-8,6.4c-2,3-3.4,6.8-4.3,11.6
			c-0.8,4.8-1.3,10.6-1.3,17.4c0,2.2,0,4.2,0.1,6.2L90,8.1H66.4L54.2,59.3V8.1H35.4v26.4H23.9V8.1H5.2v71.9h18.7V50.4h11.5v29.6
			h13.8h5h14.7l1.9-12.6h14.9l1.9,12.6h19.9l-1.4-5.8c1.8,2.3,4,3.9,6.8,5c3.4,1.3,7.7,1.9,12.9,1.9c3,0,6-0.3,8.8-1
			c2.9-0.6,5.4-1.9,7.6-3.7c2.2-1.8,4-4.4,5.3-7.6c0.6-1.4,1-3,1.3-4.7v15.9h18.7V61l3.9-6l11,25.1h12.6l2.8-11.8l-14.4-28.7
			L201.7,8.1z M73,53.4l5.1-30.5h0.2l5.1,30.5H73z M131.4,51.2c0,3.4-0.1,6.3-0.2,8.5c-0.2,2.2-0.5,4-0.9,5.4
			c-0.4,1.3-1,2.3-1.7,2.9c-0.7,0.6-1.7,0.9-2.8,0.9c-1.4,0-2.5-0.4-3.4-1.1c-0.8-0.7-1.5-2-1.9-3.9c-0.4-1.9-0.7-4.4-0.9-7.6
			c-0.1-3.2-0.2-7.2-0.2-12c0-4.8,0.1-8.8,0.2-12c0.1-3.2,0.4-5.7,0.9-7.6c0.4-1.9,1.1-3.2,1.9-3.9c0.8-0.7,2-1.1,3.4-1.1
			c1.8,0,3.1,0.7,3.9,2.2c0.8,1.5,1.2,4.3,1.2,8.4v4h18v17.1H131.4z"/>
		<g>
			<path class="st0" d="M375.6,7.7c4.6,0,8.5,0.7,11.7,2c3.1,1.3,5.6,3.4,7.5,6.2c1.9,2.9,3.3,6.6,4.2,11.2c0.9,4.7,1.3,10.4,1.3,17
				c0,6.6-0.4,12.3-1.3,17c-0.8,4.6-2.3,8.3-4.2,11.2c-1.9,2.8-4.4,4.8-7.5,6c-3.2,1.2-7.1,1.8-11.7,1.8c-4.6,0-8.6-0.6-11.7-1.8
				c-3.1-1.2-5.6-3.2-7.5-6c-1.9-2.9-3.3-6.6-4.2-11.2c-0.9-4.6-1.3-10.4-1.3-17c0-6.6,0.4-12.3,1.3-17c0.8-4.6,2.2-8.3,4.2-11.2
				c1.9-2.8,4.4-4.9,7.5-6.2C367,8.4,371,7.7,375.6,7.7 M375.6,69.8c1.7,0,3-0.5,4-1.4c1-0.9,1.7-2.3,2.2-4.5
				c0.5-1.9,0.7-4.5,0.9-7.8c0.1-3.2,0.2-7.2,0.2-12.1c0-4.8-0.1-8.9-0.2-12.1c-0.1-3.3-0.4-5.8-0.9-7.8c-0.5-2.1-1.2-3.6-2.2-4.5
				c-1-0.9-2.4-1.4-4-1.4c-1.7,0-3,0.5-4,1.4c-1,0.9-1.7,2.3-2.2,4.5c-0.4,1.9-0.7,4.6-0.9,7.8c-0.1,3.2-0.2,7.2-0.2,12.1
				c0,4.8,0.1,8.9,0.2,12.1c0.1,3.2,0.4,5.9,0.9,7.8c0.5,2.1,1.2,3.6,2.2,4.5C372.6,69.3,373.9,69.8,375.6,69.8 M375.6,6.7
				c-4.8,0-8.8,0.7-12.1,2.1c-3.3,1.4-5.9,3.6-8,6.5c-2,3-3.5,6.8-4.3,11.6c-0.9,4.7-1.3,10.5-1.3,17.2c0,6.7,0.4,12.4,1.3,17.2
				c0.9,4.7,2.3,8.6,4.3,11.6c2,3,4.7,5.1,8,6.4c3.3,1.3,7.3,1.9,12.1,1.9c4.8,0,8.8-0.6,12.1-1.9c3.3-1.3,5.9-3.4,8-6.4
				c2-3,3.5-6.8,4.3-11.6c0.9-4.7,1.3-10.5,1.3-17.2c0-6.7-0.4-12.4-1.3-17.2c-0.9-4.7-2.3-8.6-4.3-11.6c-2-3-4.7-5.2-8-6.5
				C384.4,7.4,380.3,6.7,375.6,6.7L375.6,6.7z M375.6,68.8c-1.4,0-2.5-0.4-3.4-1.1c-0.8-0.7-1.5-2-1.9-3.9c-0.4-1.9-0.7-4.4-0.9-7.6
				c-0.1-3.2-0.2-7.2-0.2-12c0-4.8,0.1-8.8,0.2-12c0.1-3.2,0.4-5.7,0.9-7.6c0.4-1.9,1.1-3.2,1.9-3.9c0.8-0.7,2-1.1,3.4-1.1
				c1.4,0,2.5,0.4,3.4,1.1c0.8,0.7,1.5,2,1.9,3.9c0.4,1.9,0.7,4.4,0.9,7.6c0.1,3.2,0.2,7.2,0.2,12c0,4.8-0.1,8.8-0.2,12
				c-0.1,3.2-0.4,5.7-0.9,7.6c-0.4,1.9-1.1,3.2-1.9,3.9C378.1,68.4,377,68.8,375.6,68.8L375.6,68.8z"/>
			<path class="st0" d="M318.6,9.1v13.9h-36h-1v1v55h-16.7v-55v-1h-1h-16.6l-3.4-13.9H318.6 M319.6,8.1h-77v0.1l3.9,15.8h17.3v56
				h18.7v-56h37V8.1L319.6,8.1z"/>
			<path class="st0" d="M348.9,9.1V19c-0.8,2.2-1.5,4.6-1.9,7.2c-0.9,5-1.4,11-1.4,18c0,7,0.5,13,1.4,18c0.5,2.6,1.1,5,1.9,7.2v9.8
				h-16.7V50.4v-1h-1h-11.5h-1v1v28.6h-16.7V26.8h16.7v7.8v1h1h11.5h1v-1V9.1H348.9 M349.9,8.1h-18.7v26.4h-11.5v-8.8h-18.7v54.3
				h18.7V50.4h11.5v29.6h18.7V69c-0.8-2.2-1.5-4.6-2-7.2c-0.9-4.9-1.4-10.9-1.4-17.8c0-6.9,0.5-12.9,1.4-17.8c0.5-2.6,1.1-5,2-7.2
				V8.1L349.9,8.1z"/>
			<path class="st0" d="M451,9.1v69.9h-18.8L420,35.4l-0.2-0.7H419h-0.2h-1v1v43.4h-15.5v-9.8c0.8-2.2,1.5-4.6,1.9-7.2
				c0.9-5,1.4-11,1.4-18c0-6.9-0.5-13-1.4-18c-0.5-2.6-1.1-5-1.9-7.2V9.1h19.2l11.9,43.6l0.2,0.7h0.8h0.2h1v-1V9.1H451 M452,8.1
				h-17.5v44.3h-0.2L422.2,8.1h-20.9v11c0.8,2.2,1.5,4.6,2,7.2c0.9,4.9,1.4,10.9,1.4,17.8c0,6.9-0.5,12.9-1.4,17.8
				c-0.5,2.6-1.1,5-2,7.2v11h17.5V35.6h0.2l12.5,44.4H452V8.1L452,8.1z"/>
			<path class="st0" d="M238.5,9.1l17,69.9h-17.8l-1.8-11.7l-0.1-0.8h-0.9H220h-0.9l-0.1,0.8l-1.8,11.7h-17.5l16.7-69.9H238.5
				 M221.1,54.4h1.2h10.5h1.2l-0.2-1.2l-5.1-30.5l-0.1-0.8h-0.8h-0.2h-0.8l-0.1,0.8l-5.1,30.5L221.1,54.4 M239.3,8.1h-23.6
				l-17.2,71.9h19.6l1.9-12.6h14.9l1.9,12.6h19.9L239.3,8.1L239.3,8.1z M222.2,53.4l5.1-30.5h0.2l5.1,30.5H222.2L222.2,53.4z"/>
		</g>
	</g>
	<g>
		<path class="st0" d="M15.7,100.5V100l8.8-5.3l0.7,1.2l-7.4,4.4l7.4,4.3l-0.7,1.1L15.7,100.5z"/>
		<path class="st0" d="M43.2,106.2l5.7-11.7h-6.7v-1.3h8.2v1.2l-5.7,11.8H43.2z"/>
		<path class="st0" d="M56.3,100.1h6.4v1.4h-6.4V100.1z"/>
		<path class="st0" d="M69.3,104.8h2.9v-9.8l-3,2.1l-0.7-1.1l4.1-2.9h1v11.7h2.9v1.3h-7.2V104.8z"/>
		<path class="st0" d="M82.3,104.8h2.9v-9.8l-3,2.1l-0.7-1.1l4.1-2.9h1v11.7h2.9v1.3h-7.2V104.8z"/>
		<path class="st0" d="M106.9,99.7c0-2.2,0.4-3.8,1.1-5c0.8-1.2,1.9-1.7,3.5-1.7c0.9,0,1.6,0.2,2.2,0.5c0.6,0.3,1.1,0.8,1.5,1.4
			c0.4,0.6,0.6,1.3,0.8,2.1c0.2,0.8,0.2,1.7,0.2,2.8c0,2.2-0.4,3.8-1.1,5c-0.8,1.2-1.9,1.7-3.6,1.7c-0.9,0-1.6-0.2-2.2-0.5
			c-0.6-0.3-1.1-0.8-1.4-1.4c-0.4-0.6-0.6-1.3-0.8-2.1C106.9,101.6,106.9,100.7,106.9,99.7z M108.5,99.7c0,0.7,0,1.4,0.1,2
			c0.1,0.6,0.3,1.2,0.5,1.7c0.2,0.5,0.5,0.9,0.9,1.2s0.9,0.4,1.5,0.4c1.1,0,1.8-0.4,2.3-1.3s0.7-2.2,0.7-4.1c0-0.7,0-1.4-0.1-2
			s-0.3-1.2-0.5-1.7c-0.2-0.5-0.6-0.9-1-1.2s-0.9-0.4-1.5-0.4c-1.1,0-1.8,0.4-2.3,1.3C108.7,96.5,108.5,97.9,108.5,99.7z"/>
		<path class="st0" d="M127.5,94.6c-0.2-0.1-0.4-0.2-0.7-0.2c-0.3,0-0.6-0.1-0.9-0.1c-0.5,0-1,0.1-1.5,0.3c-0.5,0.2-0.9,0.5-1.3,0.9
			s-0.7,1-0.9,1.7s-0.3,1.5-0.3,2.5c0,0.9,0.1,1.7,0.3,2.3c0.2,0.7,0.5,1.2,0.9,1.7s0.8,0.8,1.3,1c0.5,0.2,1.1,0.3,1.7,0.3
			c0.3,0,0.6,0,0.9-0.1c0.3-0.1,0.5-0.1,0.8-0.2v-1.9h1.4v2.5l0,0c-0.4,0.3-0.8,0.5-1.4,0.7c-0.6,0.2-1.3,0.3-2.1,0.3
			c-0.8,0-1.5-0.1-2.2-0.4c-0.7-0.3-1.2-0.7-1.7-1.2c-0.5-0.5-0.9-1.2-1.1-2.1c-0.3-0.8-0.4-1.9-0.4-3c0-1.2,0.1-2.2,0.4-3.1
			s0.7-1.5,1.2-2.1c0.5-0.5,1.1-0.9,1.8-1.2c0.7-0.2,1.4-0.4,2.2-0.4c0.4,0,0.8,0,1.1,0c0.3,0,0.6,0.1,0.8,0.1
			c0.2,0.1,0.4,0.1,0.6,0.2c0.2,0.1,0.4,0.2,0.5,0.3h0v2.9h-1.4V94.6z"/>
		<path class="st0" d="M132.7,93.2h9.7v3.4H141v-2h-2.7v10.3h2v1.4h-5.6v-1.4h2V94.5h-2.7v2h-1.4V93.2z"/>
		<path class="st0" d="M153.5,93.2h1.5v8.7c0,0.8-0.1,1.5-0.3,2c-0.2,0.6-0.5,1-0.9,1.4c-0.4,0.4-0.8,0.6-1.4,0.8
			c-0.5,0.2-1.1,0.3-1.8,0.3c-1.5,0-2.7-0.3-3.5-1c-0.8-0.7-1.2-1.7-1.2-3.2v-9h1.5v8.3c0,0.7,0.1,1.2,0.2,1.7
			c0.1,0.5,0.3,0.8,0.6,1.1c0.3,0.3,0.6,0.5,1,0.6s0.8,0.2,1.4,0.2c1,0,1.7-0.3,2.1-0.8c0.4-0.6,0.6-1.5,0.6-2.7V93.2z"/>
		<path class="st0" d="M167.7,96.1c0,0.3,0,0.6-0.1,0.9s-0.2,0.6-0.4,0.9c-0.2,0.3-0.5,0.5-0.8,0.7c-0.3,0.2-0.7,0.4-1.1,0.5v0.1
			c0.4,0.1,0.7,0.2,1.1,0.3c0.3,0.1,0.6,0.4,0.9,0.6c0.3,0.3,0.5,0.6,0.6,0.9c0.2,0.4,0.2,0.8,0.2,1.3c0,0.7-0.1,1.2-0.4,1.7
			c-0.3,0.5-0.6,0.9-1.1,1.2c-0.5,0.3-1,0.5-1.5,0.7s-1.2,0.2-1.8,0.2c-0.2,0-0.5,0-0.7,0s-0.6,0-0.9,0s-0.6,0-0.9-0.1
			c-0.3,0-0.6-0.1-0.8-0.1V93.3c0.5-0.1,1-0.1,1.6-0.2s1.3-0.1,2-0.1c0.5,0,1,0,1.5,0.1c0.5,0.1,1,0.2,1.4,0.5s0.7,0.5,1,1
			C167.6,95,167.7,95.5,167.7,96.1z M162.4,98.9c0.2,0,0.5,0,0.8,0c0.3,0,0.5,0,0.7-0.1c0.3-0.1,0.6-0.2,0.8-0.4
			c0.3-0.1,0.5-0.3,0.7-0.5c0.2-0.2,0.4-0.4,0.5-0.7c0.1-0.2,0.2-0.5,0.2-0.8c0-0.4-0.1-0.7-0.2-1c-0.2-0.3-0.4-0.5-0.6-0.7
			c-0.3-0.2-0.6-0.3-0.9-0.3c-0.3-0.1-0.7-0.1-1-0.1c-0.4,0-0.8,0-1.1,0s-0.6,0-0.8,0.1v4.4H162.4z M163.4,105c0.4,0,0.8,0,1.2-0.1
			c0.4-0.1,0.7-0.2,1-0.4c0.3-0.2,0.5-0.4,0.7-0.7c0.2-0.3,0.3-0.7,0.3-1.1c0-0.5-0.1-0.9-0.3-1.2c-0.2-0.3-0.5-0.6-0.8-0.7
			c-0.3-0.2-0.7-0.3-1.1-0.4c-0.4-0.1-0.8-0.1-1.2-0.1h-1.6v4.7c0.1,0,0.2,0,0.4,0.1c0.2,0,0.3,0,0.5,0c0.2,0,0.4,0,0.6,0
			C163.1,105,163.2,105,163.4,105z"/>
		<path class="st0" d="M172.9,93.3c0.5-0.1,1-0.2,1.6-0.2c0.6,0,1.2-0.1,1.7-0.1c0.6,0,1.1,0.1,1.6,0.2s1,0.3,1.4,0.6
			s0.7,0.7,0.9,1.1c0.2,0.5,0.4,1,0.4,1.7c0,0.5-0.1,1-0.3,1.3c-0.2,0.4-0.4,0.7-0.6,1c-0.2,0.3-0.5,0.5-0.8,0.7
			c-0.3,0.2-0.5,0.3-0.7,0.4l3.4,6.2h-1.8l-3.1-5.7h-2.3v5.7h-1.5V93.3z M176.2,94.4c-0.2,0-0.3,0-0.5,0c-0.2,0-0.3,0-0.5,0
			s-0.3,0-0.5,0c-0.1,0-0.3,0-0.3,0.1v4.8h1.4c0.9,0,1.6-0.2,2.1-0.6c0.6-0.4,0.8-1.1,0.8-2c0-0.7-0.2-1.2-0.7-1.7
			S177,94.4,176.2,94.4z"/>
		<path class="st0" d="M186,93.2h7.6v1.4h-6.1v4.3h5.6v1.4h-5.6v4.6h6.2v1.4H186V93.2z"/>
		<path class="st0" d="M219.4,96.5c0,1.1-0.5,2.4-1.6,3.8c-1.1,1.4-2.6,2.9-4.5,4.6h6.6v1.3h-8.3v-1.3c0.2-0.2,0.6-0.5,1-0.9
			c0.4-0.4,0.8-0.8,1.3-1.2c0.5-0.4,1-0.9,1.4-1.4c0.5-0.5,0.9-1,1.3-1.6c0.4-0.5,0.7-1.1,1-1.6c0.2-0.5,0.4-1,0.4-1.5
			c0-0.7-0.2-1.3-0.6-1.8c-0.4-0.4-1-0.6-1.8-0.6c-0.7,0-1.2,0.1-1.7,0.2c-0.5,0.1-0.9,0.4-1.2,0.7l-0.6-1c0.6-0.4,1.2-0.7,1.8-0.9
			c0.6-0.2,1.3-0.3,2.1-0.3c1.2,0,2,0.3,2.6,0.9C219.1,94.5,219.4,95.4,219.4,96.5z"/>
		<path class="st0" d="M224.1,99.7c0-1.1,0.1-2,0.3-2.8c0.2-0.8,0.5-1.5,0.8-2.1c0.4-0.6,0.8-1,1.4-1.3c0.6-0.3,1.2-0.5,2-0.5
			c0.8,0,1.5,0.1,2.1,0.4c0.6,0.3,1,0.7,1.4,1.3c0.4,0.6,0.6,1.3,0.8,2.1c0.2,0.8,0.2,1.8,0.2,2.9c0,1.1-0.1,2-0.3,2.8
			c-0.2,0.8-0.5,1.5-0.8,2.1c-0.4,0.6-0.8,1-1.4,1.3s-1.2,0.5-2,0.5c-0.8,0-1.5-0.2-2.1-0.5s-1-0.8-1.4-1.4s-0.6-1.3-0.8-2.1
			S224.1,100.7,224.1,99.7z M225.6,99.7c0,0.3,0,0.6,0,0.9c0,0.3,0,0.6,0.1,0.8l5.5-5c-0.2-0.7-0.5-1.2-0.9-1.6s-1-0.6-1.7-0.6
			c-1.1,0-1.9,0.5-2.3,1.4C225.8,96.5,225.6,97.8,225.6,99.7z M231.6,99.7c0-0.7,0-1.3-0.1-1.9l-5.5,5c0.2,0.7,0.5,1.3,0.9,1.7
			c0.4,0.4,1,0.6,1.7,0.6c1.1,0,1.9-0.5,2.3-1.4C231.4,102.9,231.6,101.5,231.6,99.7z"/>
		<path class="st0" d="M245.4,96.5c0,1.1-0.5,2.4-1.6,3.8c-1.1,1.4-2.6,2.9-4.5,4.6h6.6v1.3h-8.3v-1.3c0.2-0.2,0.6-0.5,1-0.9
			s0.8-0.8,1.3-1.2c0.5-0.4,1-0.9,1.4-1.4s0.9-1,1.3-1.6c0.4-0.5,0.7-1.1,1-1.6c0.2-0.5,0.4-1,0.4-1.5c0-0.7-0.2-1.3-0.6-1.8
			c-0.4-0.4-1-0.6-1.8-0.6c-0.7,0-1.2,0.1-1.7,0.2s-0.9,0.4-1.2,0.7l-0.6-1c0.6-0.4,1.2-0.7,1.8-0.9s1.3-0.3,2.1-0.3
			c1.2,0,2,0.3,2.6,0.9C245.1,94.5,245.4,95.4,245.4,96.5z"/>
		<path class="st0" d="M259.9,102.1h-2.5v4.1h-1.5v-4.1h-6V101l6.2-7.9h1.2v7.7h2.5V102.1z M255.9,95.5l-4.3,5.4h4.3V95.5z"/>
		<path class="st0" d="M283.5,92.9l1.2,0.5l-6.8,15.3l-1.2-0.5L283.5,92.9z"/>
		<path class="st0" d="M303,93.3c0.5-0.1,1-0.2,1.5-0.2c0.5,0,1.1-0.1,1.6-0.1c0.6,0,1.1,0.1,1.7,0.2c0.6,0.1,1.1,0.3,1.6,0.6
			c0.5,0.3,0.9,0.7,1.2,1.2c0.3,0.5,0.5,1.2,0.5,2c0,0.8-0.1,1.5-0.4,2s-0.7,1-1.1,1.3s-1,0.6-1.6,0.7c-0.6,0.1-1.2,0.2-1.9,0.2
			c-0.1,0-0.2,0-0.3,0s-0.3,0-0.4,0c-0.2,0-0.3,0-0.5,0c-0.1,0-0.3,0-0.3,0v4.9H303V93.3z M306.2,94.4c-0.3,0-0.6,0-0.9,0
			c-0.3,0-0.5,0-0.7,0.1v5.4c0.1,0,0.2,0,0.3,0s0.3,0,0.4,0s0.3,0,0.4,0s0.2,0,0.3,0c0.4,0,0.8,0,1.3-0.1c0.4-0.1,0.8-0.2,1.1-0.4
			c0.3-0.2,0.6-0.5,0.8-0.9s0.3-0.9,0.3-1.5c0-0.5-0.1-0.9-0.3-1.3c-0.2-0.3-0.4-0.6-0.8-0.8c-0.3-0.2-0.7-0.3-1.1-0.4
			C307,94.4,306.6,94.4,306.2,94.4z"/>
		<path class="st0" d="M322.1,102.6h-5l-1.2,3.6h-1.5l4.3-13h1.8l4.4,13h-1.6L322.1,102.6z M317.6,101.2h4.1l-1.9-6.1h-0.2
			L317.6,101.2z"/>
		<path class="st0" d="M329,93.3c0.5-0.1,1-0.2,1.6-0.2c0.6,0,1.2-0.1,1.7-0.1c0.6,0,1.1,0.1,1.6,0.2c0.5,0.1,1,0.3,1.4,0.6
			c0.4,0.3,0.7,0.7,0.9,1.1c0.2,0.5,0.4,1,0.4,1.7c0,0.5-0.1,1-0.2,1.3c-0.2,0.4-0.4,0.7-0.6,1c-0.2,0.3-0.5,0.5-0.8,0.7
			s-0.5,0.3-0.7,0.4l3.4,6.2h-1.8l-3.1-5.7h-2.3v5.7H329V93.3z M332.3,94.4c-0.2,0-0.3,0-0.5,0s-0.3,0-0.5,0s-0.3,0-0.5,0
			s-0.3,0-0.3,0.1v4.8h1.4c0.9,0,1.6-0.2,2.1-0.6c0.6-0.4,0.8-1.1,0.8-2c0-0.7-0.2-1.2-0.7-1.7S333.2,94.4,332.3,94.4z"/>
		<path class="st0" d="M348.2,102.6h-5l-1.2,3.6h-1.5l4.3-13h1.8l4.4,13h-1.6L348.2,102.6z M343.6,101.2h4.1l-1.9-6.1h-0.2
			L343.6,101.2z"/>
		<path class="st0" d="M361.3,94.5c-0.4-0.1-0.9-0.1-1.5-0.1c-0.5,0-1,0.1-1.5,0.3c-0.5,0.2-0.9,0.5-1.3,0.9s-0.7,1-0.9,1.7
			c-0.2,0.7-0.3,1.5-0.3,2.5c0,1.8,0.3,3.2,1,4.1c0.7,0.9,1.7,1.3,2.9,1.3c0.8,0,1.5-0.2,2-0.5v-3.6H359v-1.2h4v5.7
			c-0.2,0.1-0.4,0.3-0.7,0.4c-0.3,0.1-0.6,0.2-0.9,0.3c-0.3,0.1-0.6,0.2-1,0.2c-0.3,0-0.7,0.1-1,0.1c-0.8,0-1.6-0.1-2.2-0.4
			c-0.7-0.3-1.2-0.7-1.7-1.2c-0.5-0.6-0.8-1.3-1.1-2.1s-0.4-1.8-0.4-3c0-1.2,0.2-2.2,0.5-3.1c0.3-0.9,0.7-1.6,1.2-2.1
			c0.5-0.5,1.1-0.9,1.7-1.2c0.7-0.2,1.3-0.4,2-0.4c0.7,0,1.4,0,1.8,0.1c0.5,0.1,0.9,0.2,1.2,0.3l0,0.1v3.1h-1.4V94.5z"/>
		<path class="st0" d="M374.7,93.2h1.5v8.7c0,0.8-0.1,1.5-0.3,2c-0.2,0.6-0.5,1-0.9,1.4s-0.8,0.6-1.4,0.8c-0.5,0.2-1.1,0.3-1.8,0.3
			c-1.5,0-2.7-0.3-3.5-1c-0.8-0.7-1.2-1.7-1.2-3.2v-9h1.5v8.3c0,0.7,0.1,1.2,0.2,1.7c0.1,0.5,0.3,0.8,0.6,1.1c0.3,0.3,0.6,0.5,1,0.6
			s0.8,0.2,1.4,0.2c1,0,1.7-0.3,2.1-0.8c0.4-0.6,0.6-1.5,0.6-2.7V93.2z"/>
		<path class="st0" d="M387.2,102.6h-5l-1.2,3.6h-1.5l4.3-13h1.8l4.4,13h-1.6L387.2,102.6z M382.7,101.2h4.1l-1.9-6.1h-0.2
			L382.7,101.2z"/>
		<path class="st0" d="M397,101.2l-4.6-8h1.8l3.7,6.4h0l3.6-6.4h1.7l-4.6,8v5H397V101.2z"/>
		<path class="st0" d="M426.6,92.9l1.2,0.5l-6.8,15.3l-1.2-0.5L426.6,92.9z"/>
		<path class="st0" d="M432.8,105.5l-0.7-1.1l7.4-4.3l-7.4-4.4l0.7-1.2l8.8,5.3v0.5L432.8,105.5z"/>
	</g>
</g>
</svg>
