<?xml version="1.0" encoding="utf-8"?>
<!-- Generator: Adobe Illustrator 23.0.4, SVG Export Plug-In . SVG Version: 6.00 Build 0)  -->
<svg version="1.1" id="Capa_1" xmlns="http://www.w3.org/2000/svg" xmlns:xlink="http://www.w3.org/1999/xlink" x="0px" y="0px"
	 viewBox="0 0 486.46 131.34" style="enable-background:new 0 0 486.46 131.34;" xml:space="preserve">
<style type="text/css">
	.st0{fill:#FFFFFF;}
</style>
<g>
	<g>
		<path class="st0" d="M54.95,107.4l9.32-5.2c0.15-0.08,0.26-0.12,0.34-0.12c0.12,0,0.22,0.04,0.3,0.13
			c0.09,0.08,0.13,0.19,0.13,0.3c0,0.17-0.12,0.32-0.35,0.45l-7.99,4.44l7.98,4.44c0.23,0.13,0.35,0.28,0.35,0.45
			c0,0.12-0.04,0.22-0.13,0.3c-0.09,0.09-0.19,0.13-0.3,0.13c-0.08,0-0.19-0.04-0.34-0.12L54.95,107.4z"/>
		<path class="st0" d="M82.92,107.93c0.53-0.79,1.08-1.37,1.65-1.75c0.56-0.38,1.19-0.56,1.88-0.56c0.92,0,1.73,0.38,2.44,1.14
			s1.07,1.71,1.07,2.83c0,1.03-0.33,1.97-0.98,2.82c-0.65,0.85-1.55,1.28-2.69,1.28c-0.75,0-1.44-0.23-2.09-0.69
			c-0.65-0.46-1.16-1.16-1.53-2.12c-0.46-1.18-0.69-2.5-0.69-3.93c0-1.08,0.22-2.09,0.65-3.02c0.33-0.72,0.77-1.35,1.31-1.89
			s1.19-0.99,1.92-1.33c0.73-0.35,1.52-0.52,2.37-0.52c0.58,0,1.05,0.12,1.44,0.35c0.17,0.1,0.25,0.24,0.25,0.41
			c0,0.12-0.04,0.22-0.11,0.3c-0.08,0.08-0.17,0.12-0.29,0.12c-0.09,0-0.2-0.03-0.32-0.1c-0.28-0.14-0.63-0.21-1.05-0.21
			c-1.33,0-2.55,0.57-3.65,1.72s-1.65,2.51-1.65,4.09C82.86,107.1,82.88,107.45,82.92,107.93z M83.11,109.36
			c0.26,1.25,0.67,2.14,1.23,2.67c0.56,0.53,1.22,0.8,1.98,0.8c0.77,0,1.42-0.3,1.97-0.9c0.54-0.6,0.82-1.38,0.82-2.34
			c0-0.9-0.27-1.64-0.82-2.23c-0.55-0.59-1.17-0.88-1.86-0.88c-0.66,0-1.3,0.29-1.92,0.85C84.09,107.71,83.63,108.39,83.11,109.36z"
			/>
		<path class="st0" d="M102.51,106.82v1.23h-8.8v-1.23H102.51z"/>
		<path class="st0" d="M113.63,101.76v-0.39h-6.18v0.76c0,0.21-0.04,0.35-0.12,0.44c-0.08,0.09-0.18,0.13-0.31,0.13
			c-0.12,0-0.23-0.04-0.31-0.13c-0.08-0.09-0.12-0.24-0.12-0.44v-1.63h7.92v1.38l-3.47,11.09c-0.05,0.18-0.12,0.3-0.2,0.35
			s-0.16,0.09-0.26,0.09c-0.12,0-0.23-0.04-0.31-0.12c-0.08-0.08-0.12-0.18-0.12-0.29c0-0.07,0.02-0.16,0.06-0.29L113.63,101.76z"/>
		<path class="st0" d="M141.24,107.41c0,1.15-0.23,2.22-0.7,3.2s-1.11,1.75-1.92,2.29c-0.82,0.55-1.7,0.82-2.63,0.82
			c-1.39,0-2.61-0.59-3.67-1.77c-1.06-1.18-1.59-2.7-1.59-4.54c0-1.85,0.53-3.37,1.59-4.55s2.28-1.77,3.67-1.77
			c0.94,0,1.81,0.27,2.63,0.82c0.81,0.55,1.46,1.31,1.93,2.29C141,105.18,141.24,106.25,141.24,107.41z M140.37,107.41
			c0-1.4-0.41-2.66-1.22-3.78c-0.81-1.12-1.87-1.67-3.16-1.67c-1.21,0-2.25,0.53-3.11,1.6c-0.86,1.06-1.29,2.35-1.29,3.86
			c0,1.6,0.45,2.91,1.35,3.93c0.9,1.02,1.92,1.53,3.04,1.53c1.29,0,2.35-0.56,3.16-1.67S140.37,108.82,140.37,107.41z"/>
		<path class="st0" d="M152.38,102.55v-0.61c0-0.21,0.04-0.35,0.12-0.44c0.08-0.09,0.18-0.13,0.31-0.13c0.13,0,0.23,0.04,0.31,0.13
			c0.08,0.09,0.12,0.24,0.12,0.44v2.39c0,0.21-0.04,0.36-0.12,0.45c-0.08,0.09-0.18,0.13-0.31,0.13c-0.12,0-0.21-0.04-0.29-0.12
			c-0.08-0.08-0.12-0.21-0.14-0.4c-0.03-0.57-0.35-1.08-0.93-1.53c-0.79-0.61-1.7-0.91-2.71-0.91c-0.66,0-1.29,0.15-1.88,0.44
			c-0.44,0.21-0.79,0.47-1.05,0.78c-0.45,0.53-0.81,1.13-1.08,1.78c-0.19,0.48-0.29,1.02-0.29,1.62v1.51c0,1.29,0.47,2.41,1.4,3.35
			c0.93,0.95,2.01,1.42,3.25,1.42c0.74,0,1.4-0.16,1.99-0.48c0.59-0.32,1.15-0.81,1.7-1.46c0.12-0.14,0.25-0.21,0.39-0.21
			c0.12,0,0.22,0.04,0.3,0.11c0.08,0.07,0.11,0.17,0.11,0.29c0,0.16-0.15,0.4-0.44,0.72c-0.56,0.63-1.19,1.1-1.89,1.42
			c-0.7,0.32-1.41,0.48-2.13,0.48c-0.62,0-1.26-0.12-1.9-0.36c-0.49-0.18-0.9-0.4-1.22-0.65c-0.32-0.25-0.72-0.66-1.19-1.25
			s-0.79-1.13-0.96-1.62s-0.26-1.04-0.26-1.64v-1.76c0-0.85,0.23-1.72,0.68-2.6c0.46-0.89,1.08-1.57,1.87-2.04
			c0.79-0.48,1.65-0.71,2.57-0.71C150.13,101.09,151.35,101.58,152.38,102.55z"/>
		<path class="st0" d="M161.63,102.23v10.29h2.24c0.21,0,0.35,0.04,0.44,0.12c0.09,0.08,0.13,0.18,0.13,0.31
			c0,0.12-0.04,0.23-0.13,0.31s-0.24,0.12-0.44,0.12h-5.35c-0.21,0-0.35-0.04-0.44-0.12s-0.13-0.19-0.13-0.31
			c0-0.13,0.04-0.23,0.13-0.31c0.09-0.08,0.24-0.12,0.44-0.12h2.24v-10.29h-3.53v2.99c0,0.21-0.04,0.36-0.12,0.45
			c-0.08,0.09-0.18,0.13-0.31,0.13c-0.12,0-0.23-0.04-0.31-0.13s-0.12-0.24-0.12-0.45v-3.85h9.66v3.85c0,0.21-0.04,0.36-0.12,0.45
			c-0.08,0.09-0.18,0.13-0.31,0.13c-0.13,0-0.23-0.04-0.31-0.13s-0.12-0.24-0.12-0.45v-2.99H161.63z"/>
		<path class="st0" d="M178,102.23v7.21c0,1.21-0.4,2.23-1.21,3.05c-0.81,0.82-1.78,1.23-2.93,1.23c-0.77,0-1.45-0.17-2.04-0.5
			c-0.59-0.34-1.1-0.84-1.52-1.53c-0.42-0.68-0.63-1.43-0.63-2.25v-7.21h-0.73c-0.21,0-0.35-0.04-0.44-0.12
			c-0.09-0.08-0.13-0.18-0.13-0.31c0-0.13,0.05-0.24,0.14-0.33c0.08-0.07,0.23-0.1,0.43-0.1h3.18c0.21,0,0.35,0.04,0.44,0.12
			c0.09,0.08,0.13,0.18,0.13,0.31c0,0.13-0.04,0.23-0.13,0.31c-0.09,0.08-0.24,0.12-0.44,0.12h-1.59v7.21
			c0,0.95,0.33,1.76,0.98,2.42s1.42,1,2.31,1c0.57,0,1.09-0.13,1.56-0.39c0.47-0.26,0.88-0.66,1.23-1.2s0.53-1.15,0.53-1.83v-7.21
			h-1.59c-0.21,0-0.35-0.04-0.44-0.12c-0.09-0.08-0.13-0.18-0.13-0.31c0-0.13,0.04-0.23,0.13-0.31c0.09-0.08,0.24-0.12,0.44-0.12
			h3.18c0.21,0,0.35,0.04,0.44,0.12c0.09,0.08,0.13,0.18,0.13,0.31c0,0.13-0.04,0.23-0.13,0.31c-0.09,0.08-0.24,0.12-0.44,0.12H178z
			"/>
		<path class="st0" d="M182.76,112.52v-10.29h-1.16c-0.21,0-0.35-0.04-0.44-0.12c-0.09-0.08-0.13-0.18-0.13-0.31
			c0-0.13,0.04-0.23,0.13-0.31c0.09-0.08,0.24-0.12,0.44-0.12h5.42c1.07,0,1.95,0.31,2.62,0.93c0.67,0.62,1.01,1.35,1.01,2.18
			c0,1.05-0.56,1.91-1.69,2.56c0.9,0.32,1.55,0.75,1.97,1.28c0.42,0.54,0.63,1.12,0.63,1.77c0,0.58-0.14,1.1-0.41,1.58
			c-0.27,0.48-0.69,0.88-1.26,1.22c-0.57,0.33-1.18,0.5-1.84,0.5h-6.45c-0.21,0-0.35-0.04-0.44-0.12s-0.13-0.19-0.13-0.31
			c0-0.13,0.04-0.23,0.13-0.31c0.09-0.08,0.24-0.12,0.44-0.12H182.76z M183.62,106.71h3.05c0.65,0,1.25-0.12,1.79-0.36
			c0.42-0.19,0.74-0.47,0.98-0.83c0.23-0.36,0.35-0.73,0.35-1.11c0-0.54-0.25-1.04-0.76-1.49s-1.17-0.68-1.98-0.68h-3.42V106.71z
			 M183.62,112.52h4.36c0.55,0,1.04-0.12,1.45-0.37c0.41-0.25,0.72-0.55,0.93-0.91c0.21-0.36,0.32-0.74,0.32-1.13
			c0-0.44-0.15-0.86-0.46-1.27c-0.3-0.41-0.73-0.72-1.27-0.93c-0.54-0.21-1.29-0.32-2.24-0.32h-3.1V112.52z"/>
		<path class="st0" d="M196.25,108.02v4.5h1.59c0.21,0,0.36,0.04,0.45,0.12c0.09,0.08,0.13,0.18,0.13,0.31
			c0,0.12-0.04,0.23-0.13,0.31c-0.09,0.08-0.24,0.12-0.45,0.12h-3.61c-0.21,0-0.35-0.04-0.44-0.12s-0.13-0.19-0.13-0.31
			c0-0.13,0.04-0.23,0.13-0.31c0.09-0.08,0.24-0.12,0.44-0.12h1.16v-10.29h-1.16c-0.21,0-0.35-0.04-0.44-0.12
			c-0.09-0.08-0.13-0.18-0.13-0.31c0-0.13,0.04-0.23,0.13-0.31c0.09-0.08,0.24-0.12,0.44-0.12h5.22c1.08,0,1.98,0.34,2.72,1.02
			c0.74,0.68,1.1,1.45,1.1,2.31c0,0.62-0.23,1.2-0.68,1.74s-1.22,1-2.28,1.36c0.62,0.42,1.14,0.9,1.58,1.44
			c0.44,0.53,1.14,1.63,2.1,3.29h0.66c0.21,0,0.35,0.04,0.44,0.12c0.09,0.08,0.13,0.18,0.13,0.31c0,0.12-0.04,0.23-0.13,0.31
			s-0.24,0.12-0.44,0.12h-1.15c-1.07-1.91-1.89-3.19-2.48-3.84c-0.59-0.65-1.26-1.16-2.02-1.52H196.25z M196.25,107.16h2.35
			c0.75,0,1.44-0.14,2.05-0.41c0.61-0.27,1.06-0.6,1.33-0.96c0.28-0.37,0.42-0.75,0.42-1.13c0-0.58-0.29-1.12-0.87-1.64
			c-0.58-0.52-1.28-0.78-2.11-0.78h-3.17V107.16z"/>
		<path class="st0" d="M208.87,107.58v4.94h6.63v-2.55c0-0.21,0.04-0.35,0.12-0.44c0.08-0.09,0.18-0.13,0.31-0.13
			s0.23,0.04,0.31,0.13c0.08,0.09,0.12,0.24,0.12,0.44v3.41h-9.52c-0.21,0-0.35-0.04-0.44-0.12s-0.13-0.19-0.13-0.31
			c0-0.13,0.04-0.23,0.13-0.31c0.09-0.08,0.24-0.12,0.44-0.12h1.16v-10.29h-1.16c-0.21,0-0.35-0.04-0.44-0.12
			c-0.09-0.08-0.13-0.18-0.13-0.31c0-0.13,0.04-0.23,0.13-0.31c0.09-0.08,0.24-0.12,0.44-0.12h9.07v2.97c0,0.21-0.04,0.35-0.12,0.44
			s-0.18,0.13-0.31,0.13s-0.23-0.04-0.31-0.13c-0.08-0.09-0.12-0.24-0.12-0.44v-2.1h-6.18v4.49h3.09v-0.97
			c0-0.21,0.04-0.35,0.12-0.44c0.08-0.09,0.19-0.13,0.32-0.13c0.12,0,0.23,0.04,0.31,0.13c0.08,0.09,0.12,0.24,0.12,0.44v2.81
			c0,0.21-0.04,0.35-0.12,0.44c-0.08,0.09-0.19,0.13-0.31,0.13c-0.13,0-0.24-0.04-0.32-0.13c-0.08-0.09-0.12-0.24-0.12-0.44v-0.97
			H208.87z"/>
		<path class="st0" d="M233.21,112.52h6.62v-0.34c0-0.21,0.04-0.35,0.12-0.44c0.08-0.09,0.19-0.13,0.32-0.13
			c0.12,0,0.23,0.04,0.31,0.13c0.08,0.09,0.12,0.24,0.12,0.44v1.2h-8.34v-1.27c1.75-1.57,3.46-3.18,5.11-4.8
			c0.77-0.76,1.3-1.32,1.59-1.67c0.29-0.36,0.48-0.67,0.59-0.94s0.16-0.54,0.16-0.82c0-0.74-0.3-1.39-0.89-1.96
			c-0.59-0.57-1.31-0.85-2.16-0.85c-0.75,0-1.42,0.22-2,0.65c-0.58,0.43-0.96,0.96-1.13,1.6c-0.04,0.16-0.09,0.27-0.15,0.32
			c-0.08,0.07-0.18,0.1-0.29,0.1c-0.12,0-0.21-0.04-0.29-0.12c-0.08-0.08-0.12-0.17-0.12-0.28c0-0.33,0.18-0.77,0.54-1.33
			c0.36-0.56,0.86-1,1.49-1.32c0.63-0.32,1.28-0.48,1.95-0.48c1.07,0,2,0.37,2.77,1.12s1.16,1.59,1.16,2.54
			c0,0.4-0.07,0.76-0.2,1.09s-0.35,0.7-0.66,1.09c-0.31,0.39-0.87,0.99-1.68,1.78c-2.03,2-3.68,3.55-4.95,4.65V112.52z"/>
		<path class="st0" d="M253.5,105.88v2.14c0,1.85-0.44,3.32-1.32,4.41c-0.69,0.85-1.56,1.27-2.62,1.27c-0.51,0-0.98-0.1-1.43-0.3
			c-0.45-0.2-0.83-0.48-1.14-0.85c-0.2-0.23-0.42-0.59-0.65-1.09c-0.24-0.5-0.41-0.96-0.51-1.38c-0.16-0.59-0.24-1.28-0.24-2.06
			v-2.14c0-1.86,0.44-3.33,1.32-4.42c0.69-0.85,1.56-1.27,2.62-1.27c0.51,0,0.99,0.1,1.44,0.3c0.45,0.2,0.83,0.48,1.14,0.85
			c0.21,0.23,0.42,0.6,0.66,1.1s0.4,0.96,0.51,1.37C253.42,104.39,253.5,105.08,253.5,105.88z M252.63,105.99
			c0-0.81-0.12-1.57-0.34-2.27c-0.23-0.7-0.49-1.26-0.78-1.68c-0.17-0.24-0.39-0.45-0.67-0.62c-0.39-0.24-0.83-0.36-1.31-0.36
			c-0.97,0-1.72,0.49-2.27,1.48s-0.82,2.14-0.82,3.45v1.9c0,0.81,0.11,1.57,0.34,2.28s0.49,1.27,0.79,1.68
			c0.17,0.23,0.38,0.43,0.66,0.61c0.39,0.25,0.83,0.37,1.33,0.37c0.96,0,1.71-0.49,2.26-1.48s0.82-2.14,0.82-3.46V105.99z"/>
		<path class="st0" d="M262.58,100.32v12.2h2.96c0.21,0,0.35,0.04,0.44,0.12c0.09,0.08,0.13,0.18,0.13,0.31
			c0,0.12-0.04,0.23-0.13,0.31s-0.24,0.12-0.44,0.12h-6.78c-0.21,0-0.35-0.04-0.44-0.12s-0.13-0.19-0.13-0.31
			c0-0.13,0.04-0.23,0.13-0.31c0.09-0.08,0.24-0.12,0.44-0.12h2.96v-11.01l-2.81,0.88c-0.14,0.04-0.24,0.06-0.3,0.06
			c-0.1,0-0.2-0.04-0.28-0.13s-0.13-0.19-0.13-0.3c0-0.1,0.03-0.2,0.1-0.29c0.05-0.05,0.17-0.11,0.34-0.17L262.58,100.32z"/>
		<path class="st0" d="M278.31,106.09c-0.45,0.79-0.97,1.38-1.59,1.78c-0.61,0.4-1.24,0.6-1.88,0.6c-0.6,0-1.17-0.17-1.73-0.51
			c-0.56-0.34-1-0.84-1.33-1.5c-0.33-0.66-0.49-1.35-0.49-2.08c0-1.05,0.33-2.01,0.98-2.88c0.65-0.87,1.53-1.3,2.62-1.3
			c0.78,0,1.49,0.24,2.14,0.73s1.14,1.19,1.5,2.12c0.46,1.18,0.69,2.56,0.69,4.13c0,1.22-0.19,2.23-0.58,3.04
			c-0.26,0.55-0.64,1.08-1.14,1.59c-0.5,0.51-1.07,0.93-1.7,1.25c-0.86,0.43-1.76,0.65-2.69,0.65c-0.62,0-1.12-0.12-1.51-0.35
			c-0.18-0.11-0.27-0.25-0.27-0.41c0-0.12,0.04-0.21,0.12-0.29c0.08-0.08,0.18-0.12,0.3-0.12c0.08,0,0.2,0.04,0.36,0.11
			c0.27,0.13,0.58,0.2,0.92,0.2c1.46,0,2.71-0.53,3.76-1.58c1.05-1.05,1.57-2.37,1.57-3.95
			C278.35,107.02,278.34,106.61,278.31,106.09z M278.15,104.66c-0.36-1.39-0.81-2.34-1.35-2.84c-0.54-0.5-1.17-0.75-1.88-0.75
			c-0.73,0-1.38,0.31-1.93,0.92c-0.55,0.62-0.83,1.41-0.83,2.37c0,0.94,0.28,1.71,0.83,2.33c0.55,0.61,1.18,0.92,1.88,0.92
			c0.4,0,0.8-0.11,1.2-0.33s0.77-0.55,1.11-0.99C277.4,105.99,277.72,105.45,278.15,104.66z"/>
		<path class="st0" d="M303.89,99.87l-6.94,14.87c-0.12,0.25-0.27,0.38-0.45,0.38c-0.12,0-0.22-0.04-0.3-0.13
			c-0.09-0.09-0.13-0.18-0.13-0.28c0-0.08,0.03-0.2,0.1-0.34l6.93-14.87c0.08-0.16,0.15-0.26,0.22-0.31
			c0.07-0.05,0.15-0.07,0.25-0.07c0.12,0,0.22,0.04,0.3,0.13c0.08,0.08,0.13,0.18,0.13,0.28C303.99,99.61,303.96,99.72,303.89,99.87
			z"/>
		<path class="st0" d="M323.38,108.45v4.07h2.96c0.21,0,0.35,0.04,0.44,0.12c0.09,0.08,0.13,0.18,0.13,0.31
			c0,0.12-0.04,0.23-0.13,0.31s-0.24,0.12-0.44,0.12h-4.98c-0.21,0-0.35-0.04-0.44-0.12s-0.13-0.19-0.13-0.31
			c0-0.13,0.04-0.23,0.13-0.31c0.09-0.08,0.24-0.12,0.44-0.12h1.16v-10.29h-1.16c-0.21,0-0.35-0.04-0.44-0.12
			c-0.09-0.08-0.13-0.18-0.13-0.31c0-0.13,0.04-0.23,0.13-0.31c0.09-0.08,0.24-0.12,0.44-0.12h5.01c1.18,0,2.15,0.35,2.9,1.05
			c0.75,0.7,1.12,1.52,1.12,2.45c0,0.55-0.12,1.05-0.36,1.5s-0.54,0.79-0.88,1.05c-0.51,0.38-1.04,0.66-1.59,0.84
			c-0.4,0.13-0.89,0.19-1.48,0.19H323.38z M323.38,107.59h2.75c0.64,0,1.23-0.14,1.79-0.43c0.56-0.28,0.96-0.63,1.22-1.04
			c0.26-0.41,0.38-0.83,0.38-1.25c0-0.68-0.29-1.29-0.87-1.83c-0.58-0.54-1.32-0.81-2.21-0.81h-3.07V107.59z"/>
		<path class="st0" d="M340.71,109.37h-5.67l-1.16,3.15h1.65c0.21,0,0.35,0.04,0.44,0.12c0.09,0.08,0.13,0.18,0.13,0.31
			c0,0.12-0.04,0.23-0.13,0.31s-0.24,0.12-0.44,0.12h-3.22c-0.21,0-0.35-0.04-0.44-0.12s-0.13-0.19-0.13-0.31
			c0-0.13,0.04-0.23,0.13-0.31c0.09-0.08,0.24-0.12,0.44-0.12h0.67l3.81-10.29h-2.55c-0.21,0-0.35-0.04-0.44-0.12
			c-0.09-0.08-0.13-0.18-0.13-0.31c0-0.13,0.04-0.23,0.13-0.31c0.09-0.08,0.24-0.12,0.44-0.12h4.34l4.21,11.15h0.67
			c0.21,0,0.35,0.04,0.44,0.12c0.09,0.08,0.13,0.18,0.13,0.31c0,0.12-0.04,0.23-0.13,0.31s-0.24,0.12-0.44,0.12h-3.21
			c-0.21,0-0.36-0.04-0.45-0.12s-0.13-0.19-0.13-0.31c0-0.13,0.04-0.23,0.13-0.31c0.09-0.08,0.24-0.12,0.45-0.12h1.64L340.71,109.37
			z M340.38,108.51l-2.38-6.27h-0.32l-2.31,6.27H340.38z"/>
		<path class="st0" d="M354.71,113.38h-1.11l-6.36-10.75v9.89h1.59c0.21,0,0.36,0.04,0.45,0.12c0.09,0.08,0.13,0.18,0.13,0.31
			c0,0.12-0.04,0.23-0.13,0.31s-0.24,0.12-0.45,0.12h-3.17c-0.21,0-0.36-0.04-0.45-0.12s-0.13-0.19-0.13-0.31
			c0-0.13,0.04-0.23,0.13-0.31c0.09-0.08,0.24-0.12,0.45-0.12h0.72v-10.29h-1.16c-0.21,0-0.35-0.04-0.44-0.12
			c-0.09-0.08-0.13-0.18-0.13-0.31c0-0.13,0.04-0.23,0.13-0.31c0.09-0.08,0.24-0.12,0.44-0.12h2.26l6.37,10.77v-9.91h-1.59
			c-0.21,0-0.35-0.04-0.44-0.12c-0.09-0.08-0.13-0.18-0.13-0.31c0-0.13,0.04-0.23,0.13-0.31c0.09-0.08,0.23-0.12,0.45-0.12h3.18
			c0.21,0,0.35,0.04,0.44,0.12c0.09,0.08,0.13,0.18,0.13,0.31c0,0.13-0.04,0.23-0.13,0.31c-0.09,0.08-0.24,0.12-0.44,0.12h-0.73
			V113.38z"/>
		<path class="st0" d="M365.95,109.37h-5.67l-1.16,3.15h1.65c0.21,0,0.35,0.04,0.44,0.12c0.09,0.08,0.13,0.18,0.13,0.31
			c0,0.12-0.04,0.23-0.13,0.31s-0.24,0.12-0.44,0.12h-3.22c-0.21,0-0.35-0.04-0.44-0.12s-0.13-0.19-0.13-0.31
			c0-0.13,0.04-0.23,0.13-0.31c0.09-0.08,0.24-0.12,0.44-0.12h0.67l3.81-10.29h-2.55c-0.21,0-0.35-0.04-0.44-0.12
			c-0.09-0.08-0.13-0.18-0.13-0.31c0-0.13,0.04-0.23,0.13-0.31c0.09-0.08,0.24-0.12,0.44-0.12h4.34l4.21,11.15h0.67
			c0.21,0,0.35,0.04,0.44,0.12c0.09,0.08,0.13,0.18,0.13,0.31c0,0.12-0.04,0.23-0.13,0.31s-0.24,0.12-0.44,0.12h-3.21
			c-0.21,0-0.36-0.04-0.45-0.12s-0.13-0.19-0.13-0.31c0-0.13,0.04-0.23,0.13-0.31c0.09-0.08,0.24-0.12,0.45-0.12h1.64L365.95,109.37
			z M365.62,108.51l-2.38-6.27h-0.32l-2.31,6.27H365.62z"/>
		<path class="st0" d="M376.3,109.78h-0.99l-3.32-7.55h-0.16v10.29h1.59c0.21,0,0.35,0.04,0.44,0.12c0.09,0.08,0.13,0.18,0.13,0.31
			c0,0.12-0.04,0.23-0.13,0.31c-0.09,0.08-0.24,0.12-0.44,0.12h-3.18c-0.21,0-0.35-0.04-0.44-0.12s-0.13-0.19-0.13-0.31
			c0-0.13,0.04-0.23,0.13-0.31c0.09-0.08,0.24-0.12,0.44-0.12h0.73v-10.29h-0.54c-0.21,0-0.35-0.04-0.44-0.12
			c-0.09-0.08-0.13-0.18-0.13-0.31c0-0.13,0.04-0.23,0.13-0.31c0.09-0.08,0.24-0.12,0.44-0.12h2.12l3.27,7.43l3.21-7.43h2.12
			c0.21,0,0.36,0.04,0.45,0.12c0.09,0.08,0.13,0.18,0.13,0.31c0,0.13-0.04,0.23-0.13,0.31c-0.09,0.08-0.24,0.12-0.45,0.12h-0.53
			v10.29h0.72c0.21,0,0.36,0.04,0.45,0.12c0.09,0.08,0.13,0.18,0.13,0.31c0,0.12-0.04,0.23-0.13,0.31
			c-0.09,0.08-0.24,0.12-0.45,0.12h-3.17c-0.21,0-0.35-0.04-0.45-0.12c-0.09-0.08-0.14-0.19-0.14-0.31c0-0.13,0.04-0.23,0.13-0.31
			c0.09-0.08,0.24-0.12,0.45-0.12h1.59v-10.29h-0.19L376.3,109.78z"/>
		<path class="st0" d="M391.19,109.37h-5.67l-1.16,3.15h1.65c0.21,0,0.35,0.04,0.44,0.12c0.09,0.08,0.13,0.18,0.13,0.31
			c0,0.12-0.04,0.23-0.13,0.31s-0.24,0.12-0.44,0.12h-3.22c-0.21,0-0.35-0.04-0.44-0.12s-0.13-0.19-0.13-0.31
			c0-0.13,0.04-0.23,0.13-0.31c0.09-0.08,0.24-0.12,0.44-0.12h0.67l3.81-10.29h-2.55c-0.21,0-0.35-0.04-0.44-0.12
			c-0.09-0.08-0.13-0.18-0.13-0.31c0-0.13,0.04-0.23,0.13-0.31c0.09-0.08,0.24-0.12,0.44-0.12h4.34l4.21,11.15h0.67
			c0.21,0,0.35,0.04,0.44,0.12c0.09,0.08,0.13,0.18,0.13,0.31c0,0.12-0.04,0.23-0.13,0.31s-0.24,0.12-0.44,0.12h-3.21
			c-0.21,0-0.36-0.04-0.45-0.12s-0.13-0.19-0.13-0.31c0-0.13,0.04-0.23,0.13-0.31c0.09-0.08,0.24-0.12,0.45-0.12h1.64L391.19,109.37
			z M390.86,108.51l-2.38-6.27h-0.32l-2.31,6.27H390.86z M390.24,97.86l-2.43,2.1c-0.15,0.14-0.28,0.21-0.39,0.21
			c-0.12,0-0.22-0.04-0.3-0.13c-0.08-0.08-0.13-0.19-0.13-0.31c0-0.07,0.02-0.13,0.05-0.19c0.03-0.05,0.1-0.13,0.21-0.24l2.42-2.09
			c0.16-0.14,0.29-0.21,0.4-0.21c0.12,0,0.22,0.04,0.3,0.13s0.13,0.19,0.13,0.31c0,0.07-0.02,0.13-0.05,0.19
			C390.42,97.69,390.35,97.76,390.24,97.86z"/>
		<path class="st0" d="M417.46,99.87l-6.94,14.87c-0.12,0.25-0.27,0.38-0.45,0.38c-0.12,0-0.22-0.04-0.3-0.13
			c-0.09-0.09-0.13-0.18-0.13-0.28c0-0.08,0.03-0.2,0.1-0.34l6.93-14.87c0.08-0.16,0.15-0.26,0.22-0.31
			c0.07-0.05,0.15-0.07,0.25-0.07c0.12,0,0.22,0.04,0.3,0.13c0.08,0.08,0.13,0.18,0.13,0.28C417.56,99.61,417.53,99.72,417.46,99.87
			z"/>
		<path class="st0" d="M431.51,107.4l-9.32,5.2c-0.15,0.08-0.26,0.12-0.34,0.12c-0.12,0-0.22-0.04-0.3-0.13
			c-0.09-0.08-0.13-0.19-0.13-0.3c0-0.17,0.12-0.32,0.35-0.45l7.99-4.44l-7.98-4.44c-0.23-0.13-0.35-0.28-0.35-0.45
			c0-0.12,0.04-0.22,0.13-0.3c0.09-0.09,0.19-0.13,0.3-0.13c0.08,0,0.19,0.04,0.34,0.12L431.51,107.4z"/>
	</g>
	<g>
		<path class="st0" d="M216.27,17.63h-19.94l-13.9,27.6h-0.2v-27.6H163.5v17.88c-0.19-2.13-0.54-4.12-1.09-5.94
			c-0.84-2.79-2.18-5.17-4.03-7.15c-1.85-1.98-4.25-3.51-7.2-4.58c-2.95-1.07-6.54-1.61-10.78-1.61c-4.83,0-8.89,0.65-12.18,1.96
			c-3.29,1.31-5.94,3.44-7.96,6.4c-2.01,2.96-3.44,6.82-4.28,11.58c-0.84,4.77-1.26,10.57-1.26,17.42c0,2.17,0.05,4.19,0.12,6.16
			l-10.26-42.11H81.02L68.76,68.8V17.63H50.03v26.39H38.55V17.63H19.82v71.91h18.73V59.93h11.48v29.61h13.76h4.97h14.67l1.92-12.59
			h14.9l1.91,12.59h19.94l-1.41-5.81c1.77,2.25,4.02,3.94,6.82,5.01c3.36,1.27,7.66,1.91,12.89,1.91c3.03,0,5.96-0.32,8.81-0.96
			c2.85-0.64,5.39-1.88,7.6-3.72c2.21-1.85,3.99-4.38,5.34-7.6c0.58-1.4,1.01-3,1.34-4.73v15.91h18.73V70.51l3.93-6.04l10.98,25.08
			h12.59l2.83-11.81l-14.41-28.68L216.27,17.63z M87.56,62.86l5.14-30.52h0.2l5.14,30.52H87.56z M146.04,60.64
			c0,3.42-0.08,6.26-0.25,8.51c-0.17,2.25-0.45,4.04-0.86,5.39c-0.4,1.34-0.97,2.3-1.71,2.87c-0.74,0.57-1.68,0.86-2.82,0.86
			c-1.41,0-2.54-0.37-3.37-1.11c-0.84-0.74-1.48-2.05-1.92-3.93c-0.44-1.88-0.72-4.41-0.86-7.6c-0.13-3.19-0.2-7.2-0.2-12.04
			c0-4.83,0.06-8.84,0.2-12.03c0.13-3.19,0.42-5.72,0.86-7.6c0.43-1.88,1.08-3.19,1.92-3.93c0.83-0.74,1.96-1.11,3.37-1.11
			c1.82,0,3.13,0.74,3.93,2.22c0.81,1.48,1.21,4.26,1.21,8.36v4.03h17.96v17.12H146.04z"/>
		<g>
			<path class="st0" d="M390.17,17.23c4.61,0,8.55,0.67,11.7,1.99c3.09,1.29,5.62,3.37,7.51,6.18c1.93,2.86,3.33,6.63,4.18,11.2
				c0.86,4.65,1.29,10.37,1.29,16.99c0,6.62-0.43,12.34-1.29,16.99c-0.84,4.58-2.25,8.35-4.18,11.21c-1.89,2.8-4.41,4.83-7.49,6.02
				c-3.16,1.22-7.11,1.85-11.72,1.85c-4.61,0-8.56-0.62-11.73-1.85c-3.08-1.2-5.6-3.22-7.49-6.02c-1.93-2.86-3.33-6.63-4.17-11.21
				c-0.86-4.65-1.29-10.36-1.29-16.99c0-6.63,0.44-12.34,1.29-16.99c0.84-4.58,2.25-8.34,4.18-11.2c1.89-2.81,4.42-4.89,7.51-6.18
				C381.62,17.89,385.55,17.23,390.17,17.23 M390.17,79.26c1.66,0,3.02-0.46,4.03-1.36c1.01-0.89,1.73-2.34,2.23-4.45
				c0.45-1.94,0.74-4.49,0.88-7.79c0.13-3.17,0.2-7.23,0.2-12.08c0-4.84-0.07-8.9-0.2-12.08c-0.14-3.3-0.43-5.85-0.88-7.79
				c-0.49-2.11-1.22-3.57-2.23-4.45c-1.02-0.9-2.38-1.36-4.03-1.36c-1.65,0-3.01,0.46-4.04,1.36c-1.01,0.89-1.74,2.35-2.23,4.46
				c-0.45,1.93-0.74,4.55-0.88,7.79c-0.13,3.17-0.2,7.24-0.2,12.08c0,4.84,0.07,8.91,0.2,12.08c0.14,3.23,0.43,5.85,0.88,7.79
				c0.49,2.11,1.22,3.56,2.23,4.45C387.15,78.81,388.51,79.26,390.17,79.26 M390.17,16.23c-4.77,0-8.8,0.69-12.09,2.06
				c-3.29,1.38-5.94,3.56-7.95,6.55c-2.02,2.99-3.46,6.85-4.33,11.58c-0.88,4.73-1.31,10.46-1.31,17.17
				c0,6.72,0.44,12.44,1.31,17.17c0.87,4.73,2.31,8.6,4.33,11.58c2.01,2.99,4.67,5.12,7.95,6.4c3.29,1.27,7.32,1.91,12.09,1.91
				c4.77,0,8.79-0.64,12.08-1.91c3.29-1.28,5.94-3.41,7.96-6.4c2.01-2.99,3.46-6.85,4.33-11.58c0.87-4.73,1.31-10.46,1.31-17.17
				c0-6.71-0.44-12.44-1.31-17.17c-0.87-4.73-2.32-8.59-4.33-11.58c-2.01-2.99-4.67-5.17-7.96-6.55
				C398.96,16.91,394.93,16.23,390.17,16.23L390.17,16.23z M390.17,78.26c-1.41,0-2.53-0.37-3.38-1.11
				c-0.84-0.74-1.48-2.05-1.92-3.93c-0.43-1.88-0.72-4.41-0.85-7.6c-0.13-3.19-0.2-7.2-0.2-12.04c0-4.83,0.07-8.84,0.2-12.03
				c0.13-3.19,0.42-5.72,0.85-7.6c0.44-1.88,1.08-3.19,1.92-3.93c0.84-0.74,1.96-1.11,3.38-1.11c1.41,0,2.54,0.37,3.37,1.11
				c0.84,0.74,1.47,2.05,1.91,3.93c0.44,1.88,0.72,4.42,0.86,7.6c0.13,3.19,0.2,7.2,0.2,12.03c0,4.84-0.07,8.85-0.2,12.04
				c-0.14,3.19-0.42,5.73-0.86,7.6c-0.44,1.88-1.07,3.19-1.91,3.93C392.7,77.9,391.58,78.26,390.17,78.26L390.17,78.26z"/>
			<path class="st0" d="M333.23,18.63v13.91h-36.05h-1v1v54.99h-16.73V33.55v-1h-1h-16.55l-3.39-13.91H333.23 M334.23,17.63h-76.98
				v0.1l3.86,15.82h17.34v55.99h18.73V33.55h37.05V17.63L334.23,17.63z"/>
			<path class="st0" d="M363.45,18.63v9.83c-0.82,2.2-1.47,4.61-1.94,7.16c-0.92,4.97-1.38,11.01-1.38,17.96
				c0,6.95,0.47,13,1.38,17.96c0.47,2.56,1.12,4.97,1.94,7.16v9.83h-16.73V59.93v-1h-1h-11.48h-1v1v28.61H316.5V36.27h16.73v7.75v1
				h1h11.48h1v-1V18.63H363.45 M364.45,17.63h-18.73v26.39h-11.48v-8.75H315.5v54.27h18.73V59.93h11.48v29.61h18.73V78.53
				c-0.82-2.16-1.48-4.55-1.96-7.16c-0.91-4.91-1.37-10.89-1.37-17.78c0-6.89,0.46-12.88,1.37-17.78c0.48-2.61,1.14-5,1.96-7.17
				V17.63L364.45,17.63z"/>
			<path class="st0" d="M465.64,18.63v69.91h-18.79l-12.28-43.68l-0.21-0.73h-0.76h-0.2h-1v1v43.41h-15.52v-9.83
				c0.81-2.16,1.46-4.57,1.94-7.16c0.92-4.98,1.38-11.02,1.38-17.96c0-6.94-0.47-12.98-1.38-17.96c-0.48-2.59-1.13-5-1.94-7.16
				v-9.83h19.19l11.88,43.58l0.2,0.74h0.76h0.2h1v-1V18.63H465.64 M466.64,17.63h-17.52v44.31h-0.2l-12.09-44.31h-20.95v11.02
				c0.82,2.16,1.48,4.55,1.96,7.16c0.91,4.92,1.37,10.9,1.37,17.78c0,6.88-0.46,12.86-1.37,17.78c-0.48,2.61-1.13,5-1.96,7.16v11.01
				h17.52V45.13h0.2l12.48,44.41h20.55V17.63L466.64,17.63z"/>
			<path class="st0" d="M253.08,18.63l17.03,69.91h-17.81l-1.78-11.74l-0.13-0.85h-0.86h-14.91h-0.86l-0.13,0.85l-1.78,11.74h-17.52
				l16.75-69.91H253.08 M235.66,63.86h1.18h10.47h1.18l-0.2-1.17l-5.13-30.52l-0.14-0.83h-0.85h-0.21h-0.85L241,32.17l-5.14,30.52
				L235.66,63.86 M253.87,17.63h-23.56l-17.23,71.91h19.64l1.91-12.59h14.91l1.91,12.59h19.94L253.87,17.63L253.87,17.63z
				 M236.85,62.86l5.14-30.52h0.21l5.13,30.52H236.85L236.85,62.86z"/>
		</g>
	</g>
</g>
</svg>
