<svg id="Capa_1" data-name="Capa 1" xmlns="http://www.w3.org/2000/svg" viewBox="0 0 205.05 139.36"><defs><style>.cls-1{fill:#fff;}</style></defs><title>logoMesa de trabajo 1</title><path class="cls-1" d="M106.56,88.69V73.85c0-5.43.52-8-5.14-8-7,0-6.53,4.85-6.53,9.76V88.69H88.37V60.51H94v2.25a11.75,11.75,0,0,1,8.14-2.71c11.37,0,10.91,7.16,10.91,13.28V88.69Z"/><path class="cls-1" d="M41,60.05c-4.69,0-12,1.54-12.45,6.54a2.77,2.77,0,0,0,1.6,3,2.81,2.81,0,0,0,4.22-1.13,4.51,4.51,0,0,0,.22-.44c1.62-2.56,3.69-2.47,6.07-2.47,5.71,0,5.95,1.68,5.95,5.43H39.36c-6,0-12,.92-12,9.12,0,6.87,4.27,9,11,9,4,0,7-1.22,8.77-2.77v2.31h5.83V70.33C52.92,63.05,48.54,60.05,41,60.05ZM39.36,83.78c-4.45,0-5.49-1.33-5.49-3.75,0-3,1.27-3.7,5.26-3.7h7.56C46.69,81.24,46.06,83.78,39.36,83.78Z"/><path class="cls-1" d="M142.51,83.37c-5.89,0-6.58-2.31-6.58-8.77s.69-8.78,6.58-8.78c2.31,0,5.6,0,5.66,3.12h0a3.09,3.09,0,0,0,6.17,0c0-.15,0-.3,0-.44-.29-7.2-6.91-8.42-12-8.42-11.72,0-12.94,6.47-12.94,14.43s1.22,14.67,12.94,14.67c5.2,0,12-1.27,12-8.89h-6.18C148.11,83.37,144.82,83.37,142.51,83.37Z"/><path class="cls-1" d="M118,88.76V60.18h6.61V88.76Z"/><path class="cls-1" d="M71.45,83.37c-5.89,0-6.58-2.31-6.58-8.77s.69-8.78,6.58-8.78c2.31,0,5.6,0,5.66,3.12h0a3.09,3.09,0,0,0,6.18,0,3.15,3.15,0,0,0,0-.44c-.27-7.2-6.9-8.42-12-8.42-11.72,0-12.94,6.47-12.94,14.43s1.22,14.67,12.94,14.67c5.19,0,12-1.27,12-8.89H77.11C77.05,83.37,73.76,83.37,71.45,83.37Z"/><path class="cls-1" d="M19.55,80.27l0-29.9H13.05V78.42c0,5.41,2.33,8.52,6.51,9.81a17.23,17.23,0,0,0,4.17.68v-5.7C20.54,83,19.84,82,19.55,80.27Z"/><path class="cls-1" d="M176.76,44.61C166.85,44.61,161,50,161,60.12c0,9.92,5.59,15.77,15.76,15.77S192.52,70,192.52,60.12C192.52,50,186.68,44.61,176.76,44.61Zm3.32,21.54c-6.1,0-9.46-3.51-9.46-9.46s3.51-9.31,9.46-9.31,9.46,3.21,9.46,9.31S186.18,66.15,180.08,66.15Z"/><path class="cls-1" d="M182.07,50.12c-3.56,0-5.67,1.93-5.67,5.59s2,5.67,5.67,5.67,5.68-2.1,5.68-5.67S185.64,50.12,182.07,50.12Z"/><path class="cls-1" d="M172.57,79.72c-5.95,0-9.46,3.21-9.46,9.31s3.36,9.46,9.46,9.46S182,95,182,89,178.52,79.72,172.57,79.72ZM171,96.19c-3.66,0-5.67-2.1-5.67-5.67s2.11-5.59,5.67-5.59,5.68,1.93,5.68,5.59S174.68,96.19,171,96.19Z"/><path class="cls-1" d="M170.37,87.57A3.06,3.06,0,0,0,167,90.92a3.41,3.41,0,0,0,6.82,0A3.06,3.06,0,0,0,170.37,87.57Z"/><path class="cls-1" d="M157.79,27c-5.95,0-9.45,3.2-9.45,9.31,0,6,3.35,9.45,9.45,9.45s9.46-3.5,9.46-9.45C167.25,30.15,163.74,27,157.79,27Zm1,17c-3.66,0-5.68-2.11-5.68-5.68s2.11-5.58,5.68-5.58,5.67,1.92,5.67,5.58S162.48,43.91,158.82,43.91Z"/><path class="cls-1" d="M159.67,35.64A3.06,3.06,0,0,0,156.26,39a3.41,3.41,0,0,0,6.81,0A3,3,0,0,0,159.67,35.64Z"/><path class="cls-1" d="M171.4,15.82c-3.57,0-5.68,1.92-5.68,5.59s2,5.67,5.68,5.67,5.67-2.1,5.67-5.67S175,15.82,171.4,15.82Zm-.94,9.88a3.09,3.09,0,0,1-3.4-3.4,3.41,3.41,0,0,1,6.81,0A3.09,3.09,0,0,1,170.46,25.7Z"/><path class="cls-1" d="M168.74,102.21c-3.57,0-5.68,1.93-5.68,5.59s2,5.68,5.68,5.68,5.67-2.11,5.67-5.68S172.3,102.21,168.74,102.21Zm-.94,9.89a3.1,3.1,0,0,1-3.41-3.41,3.41,3.41,0,0,1,6.81,0A3.09,3.09,0,0,1,167.8,112.1Z"/><path class="cls-1" d="M23.52,123.39H22.4l-2.79-9.48-2.81,9.48H15.69l-3.17-10.66h1l2.74,9.43,2.81-9.43h1.07L23,122.16l2.72-9.43h1Z"/><path class="cls-1" d="M39,123.39H37.85l-2.79-9.48-2.81,9.48H31.14L28,112.73h1l2.74,9.43,2.81-9.43H35.6l2.83,9.43,2.72-9.43h1Z"/><path class="cls-1" d="M54.42,123.39H53.3l-2.79-9.48-2.81,9.48H46.59l-3.17-10.66h1l2.74,9.43L50,112.73h1.07l2.83,9.43,2.72-9.43h1Z"/><path class="cls-1" d="M59.07,123.54a.66.66,0,0,1-.75-.75c0-.52.24-.76.75-.76s.78.24.78.76S59.59,123.54,59.07,123.54Z"/><path class="cls-1" d="M63.27,123.39V107.84h.95v15.55Z"/><path class="cls-1" d="M75.35,123.39v-1.67c-.6,1.22-2,1.82-4,1.82-2.74,0-4-.91-4-3.16,0-2.81,1.58-3.3,4.1-3.3h3.79c0-2.34.25-3.62-3.32-3.62-1.58,0-3.39.21-3.39,2.19h-.89c0-2.63,2.21-3.1,4.46-3.1,4.41,0,4.1,2.19,4.1,4.64v6.2ZM71.4,118c-1.87,0-3.05.29-3.05,2.41,0,1.65.78,2.31,3,2.31,3.66,0,4-1.78,4-4.72Z"/><path class="cls-1" d="M83.93,123.54c-4,0-4.52-1.87-4.52-5.48s.53-5.51,4.52-5.51c2.17,0,4.2.6,4.2,3.1h-.9c0-1.87-1.74-2.19-3.27-2.19-3.42,0-3.59,1.59-3.59,4.58s.17,4.59,3.59,4.59c1.55,0,3.27-.27,3.27-2.16h.9C88.13,123,86.1,123.54,83.93,123.54Z"/><path class="cls-1" d="M98.71,123.39v-5.51c0-2.1,0-3.1-.69-3.77a3.16,3.16,0,0,0-2.25-.65c-3.68,0-3.52,2.75-3.52,5.2v4.73h-1V112.73h.91v1.6a3.77,3.77,0,0,1,3.59-1.78,4.06,4.06,0,0,1,3,.91c1,1,.89,2.21.89,4.24v5.69Z"/><path class="cls-1" d="M103.73,109.79c-.49,0-.71-.27-.71-.74s.22-.69.71-.69.72.22.72.69A.66.66,0,0,1,103.73,109.79Zm-.49,13.6V112.73h1v10.66Z"/><path class="cls-1" d="M112.07,123.54c-4,0-4.53-1.87-4.53-5.48s.54-5.51,4.53-5.51c2.16,0,4.19.6,4.19,3.1h-.89c0-1.87-1.74-2.19-3.28-2.19-3.41,0-3.59,1.59-3.59,4.58s.18,4.59,3.59,4.59c1.56,0,3.28-.27,3.28-2.16h.89C116.26,123,114.23,123.54,112.07,123.54Z"/><path class="cls-1" d="M119.6,123.54a.66.66,0,0,1-.75-.75c0-.52.24-.76.75-.76s.78.24.78.76S120.12,123.54,119.6,123.54Z"/><path class="cls-1" d="M131.22,123.39v-5.51c0-2.1,0-3.1-.69-3.77a3.16,3.16,0,0,0-2.25-.65c-3.68,0-3.53,2.75-3.53,5.2v4.73h-1V112.73h.92v1.6a3.75,3.75,0,0,1,3.59-1.78,4.08,4.08,0,0,1,3,.91c1,1,.89,2.21.89,4.24v5.69Z"/><path class="cls-1" d="M136.3,118.15c0,2.94.25,4.48,3.57,4.48,1.54,0,3.28-.29,3.28-2.16H144c0,2.5-2,3.07-4.19,3.07-4,0-4.51-1.87-4.51-5.46s.49-5.53,4.44-5.53,4.44,2,4.44,5.6Zm3.48-4.71c-2.74,0-3.48,1.23-3.48,3.84h7C143.28,114.62,142.57,113.44,139.78,113.44Z"/><path class="cls-1" d="M151.44,123.54c-2.18,0-3.34-.8-3.34-3.07V113.6h-1.83v-.87h1.83v-4.22h1v4.22H154v.87h-4.93v6.87c0,1.71.79,2.18,2.44,2.18s2.49-.58,2.49-2.18h.9C154.88,122.72,153.58,123.54,151.44,123.54Z"/></svg>